<svg viewBox="0 0 330 200" xmlns="http://www.w3.org/2000/svg"><g><g><g><g><g><line x1="30.78125" y1="178" x2="25.78125" y2="178" style="visibility: inherit;" fill="rgb(0, 0, 0)" stroke="rgb(204, 204, 204)" stroke-width="1px"></line><line x1="30.78125" y1="161.8181818181818" x2="25.78125" y2="161.8181818181818" style="visibility: inherit;" fill="rgb(0, 0, 0)" stroke="rgb(204, 204, 204)" stroke-width="1px"></line><line x1="30.78125" y1="145.63636363636363" x2="25.78125" y2="145.63636363636363" style="visibility: inherit;" fill="rgb(0, 0, 0)" stroke="rgb(204, 204, 204)" stroke-width="1px"></line><line x1="30.78125" y1="129.45454545454547" x2="25.78125" y2="129.45454545454547" style="visibility: inherit;" fill="rgb(0, 0, 0)" stroke="rgb(204, 204, 204)" stroke-width="1px"></line><line x1="30.78125" y1="113.27272727272727" x2="25.78125" y2="113.27272727272727" style="visibility: inherit;" fill="rgb(0, 0, 0)" stroke="rgb(204, 204, 204)" stroke-width="1px"></line><line x1="30.78125" y1="97.09090909090908" x2="25.78125" y2="97.09090909090908" style="visibility: inherit;" fill="rgb(0, 0, 0)" stroke="rgb(204, 204, 204)" stroke-width="1px"></line><line x1="30.78125" y1="80.90909090909092" x2="25.78125" y2="80.90909090909092" style="visibility: inherit;" fill="rgb(0, 0, 0)" stroke="rgb(204, 204, 204)" stroke-width="1px"></line><line x1="30.78125" y1="64.72727272727273" x2="25.78125" y2="64.72727272727273" style="visibility: inherit;" fill="rgb(0, 0, 0)" stroke="rgb(204, 204, 204)" stroke-width="1px"></line><line x1="30.78125" y1="48.54545454545454" x2="25.78125" y2="48.54545454545454" style="visibility: inherit;" fill="rgb(0, 0, 0)" stroke="rgb(204, 204, 204)" stroke-width="1px"></line><line x1="30.78125" y1="32.36363636363635" x2="25.78125" y2="32.36363636363635" style="visibility: inherit;" fill="rgb(0, 0, 0)" stroke="rgb(204, 204, 204)" stroke-width="1px"></line><line x1="30.78125" y1="16.181818181818187" x2="25.78125" y2="16.181818181818187" style="visibility: inherit;" fill="rgb(0, 0, 0)" stroke="rgb(204, 204, 204)" stroke-width="1px"></line><line x1="30.78125" y1="0" x2="25.78125" y2="0" style="visibility: inherit;" fill="rgb(0, 0, 0)" stroke="rgb(204, 204, 204)" stroke-width="1px"></line></g><g transform="translate(20.78125, 0)"><text x="0" y="178" dx="0em" dy="0.3em" style="text-anchor: end; visibility: hidden; font-family: Roboto, sans-serif; font-size: 12px; font-weight: 200;" fill="rgb(50, 49, 63)" stroke="none" stroke-width="1px">-2</text><text x="0" y="161.8181818181818" dx="0em" dy="0.3em" style="text-anchor: end; visibility: inherit; font-family: Roboto, sans-serif; font-size: 12px; font-weight: 200;" fill="rgb(50, 49, 63)" stroke="none" stroke-width="1px">0</text><text x="0" y="145.63636363636363" dx="0em" dy="0.3em" style="text-anchor: end; visibility: hidden; font-family: Roboto, sans-serif; font-size: 12px; font-weight: 200;" fill="rgb(50, 49, 63)" stroke="none" stroke-width="1px">2</text><text x="0" y="129.45454545454547" dx="0em" dy="0.3em" style="text-anchor: end; visibility: inherit; font-family: Roboto, sans-serif; font-size: 12px; font-weight: 200;" fill="rgb(50, 49, 63)" stroke="none" stroke-width="1px">4</text><text x="0" y="113.27272727272727" dx="0em" dy="0.3em" style="text-anchor: end; visibility: hidden; font-family: Roboto, sans-serif; font-size: 12px; font-weight: 200;" fill="rgb(50, 49, 63)" stroke="none" stroke-width="1px">6</text><text x="0" y="97.09090909090908" dx="0em" dy="0.3em" style="text-anchor: end; visibility: inherit; font-family: Roboto, sans-serif; font-size: 12px; font-weight: 200;" fill="rgb(50, 49, 63)" stroke="none" stroke-width="1px">8</text><text x="0" y="80.90909090909092" dx="0em" dy="0.3em" style="text-anchor: end; visibility: hidden; font-family: Roboto, sans-serif; font-size: 12px; font-weight: 200;" fill="rgb(50, 49, 63)" stroke="none" stroke-width="1px">10</text><text x="0" y="64.72727272727273" dx="0em" dy="0.3em" style="text-anchor: end; visibility: inherit; font-family: Roboto, sans-serif; font-size: 12px; font-weight: 200;" fill="rgb(50, 49, 63)" stroke="none" stroke-width="1px">12</text><text x="0" y="48.54545454545454" dx="0em" dy="0.3em" style="text-anchor: end; visibility: hidden; font-family: Roboto, sans-serif; font-size: 12px; font-weight: 200;" fill="rgb(50, 49, 63)" stroke="none" stroke-width="1px">14</text><text x="0" y="32.36363636363635" dx="0em" dy="0.3em" style="text-anchor: end; visibility: inherit; font-family: Roboto, sans-serif; font-size: 12px; font-weight: 200;" fill="rgb(50, 49, 63)" stroke="none" stroke-width="1px">16</text><text x="0" y="16.181818181818187" dx="0em" dy="0.3em" style="text-anchor: end; visibility: hidden; font-family: Roboto, sans-serif; font-size: 12px; font-weight: 200;" fill="rgb(50, 49, 63)" stroke="none" stroke-width="1px">18</text><text x="0" y="0" dx="0em" dy="0.3em" style="text-anchor: end; visibility: hidden; font-family: Roboto, sans-serif; font-size: 12px; font-weight: 200;" fill="rgb(50, 49, 63)" stroke="none" stroke-width="1px">20</text></g><line x1="30.78125" y1="0" x2="30.78125" y2="178" fill="rgb(0, 0, 0)" stroke="rgb(204, 204, 204)" stroke-width="1px"></line></g></g><g transform="translate(30, 0)" clip-path="url(#clip_0)"><clipPath id="clip_0"><rect width="299" height="177"></rect></clipPath><g><g><g><line x1="0" y1="0" x2="0" y2="178" fill="rgb(0, 0, 0)" stroke="rgb(60, 60, 60)" stroke-width="1px" opacity="0.25"></line><line x1="33.24652777777778" y1="0" x2="33.24652777777778" y2="178" fill="rgb(0, 0, 0)" stroke="rgb(60, 60, 60)" stroke-width="1px" opacity="0.25"></line><line x1="66.49305555555556" y1="0" x2="66.49305555555556" y2="178" fill="rgb(0, 0, 0)" stroke="rgb(60, 60, 60)" stroke-width="1px" opacity="0.25"></line><line x1="99.73958333333333" y1="0" x2="99.73958333333333" y2="178" fill="rgb(0, 0, 0)" stroke="rgb(60, 60, 60)" stroke-width="1px" opacity="0.25"></line><line x1="132.98611111111111" y1="0" x2="132.98611111111111" y2="178" fill="rgb(0, 0, 0)" stroke="rgb(60, 60, 60)" stroke-width="1px" opacity="0.25"></line><line x1="166.23263888888889" y1="0" x2="166.23263888888889" y2="178" fill="rgb(0, 0, 0)" stroke="rgb(60, 60, 60)" stroke-width="1px" opacity="0.25"></line><line x1="199.47916666666666" y1="0" x2="199.47916666666666" y2="178" fill="rgb(0, 0, 0)" stroke="rgb(60, 60, 60)" stroke-width="1px" opacity="0.25"></line><line x1="232.72569444444446" y1="0" x2="232.72569444444446" y2="178" fill="rgb(0, 0, 0)" stroke="rgb(60, 60, 60)" stroke-width="1px" opacity="0.25"></line><line x1="265.97222222222223" y1="0" x2="265.97222222222223" y2="178" fill="rgb(0, 0, 0)" stroke="rgb(60, 60, 60)" stroke-width="1px" opacity="0.25"></line><line x1="299.21875" y1="0" x2="299.21875" y2="178" fill="rgb(0, 0, 0)" stroke="rgb(60, 60, 60)" stroke-width="1px" opacity="0.25"></line></g><g><line x1="0" y1="178" x2="299.21875" y2="178" fill="rgb(0, 0, 0)" stroke="rgb(60, 60, 60)" stroke-width="1px" opacity="0.25"></line><line x1="0" y1="161.8181818181818" x2="299.21875" y2="161.8181818181818" fill="rgb(0, 0, 0)" stroke="rgb(60, 60, 60)" stroke-width="1px" opacity="0.25"></line><line x1="0" y1="145.63636363636363" x2="299.21875" y2="145.63636363636363" fill="rgb(0, 0, 0)" stroke="rgb(60, 60, 60)" stroke-width="1px" opacity="0.25"></line><line x1="0" y1="129.45454545454547" x2="299.21875" y2="129.45454545454547" fill="rgb(0, 0, 0)" stroke="rgb(60, 60, 60)" stroke-width="1px" opacity="0.25"></line><line x1="0" y1="113.27272727272727" x2="299.21875" y2="113.27272727272727" fill="rgb(0, 0, 0)" stroke="rgb(60, 60, 60)" stroke-width="1px" opacity="0.25"></line><line x1="0" y1="97.09090909090908" x2="299.21875" y2="97.09090909090908" fill="rgb(0, 0, 0)" stroke="rgb(60, 60, 60)" stroke-width="1px" opacity="0.25"></line><line x1="0" y1="80.90909090909092" x2="299.21875" y2="80.90909090909092" fill="rgb(0, 0, 0)" stroke="rgb(60, 60, 60)" stroke-width="1px" opacity="0.25"></line><line x1="0" y1="64.72727272727273" x2="299.21875" y2="64.72727272727273" fill="rgb(0, 0, 0)" stroke="rgb(60, 60, 60)" stroke-width="1px" opacity="0.25"></line><line x1="0" y1="48.54545454545454" x2="299.21875" y2="48.54545454545454" fill="rgb(0, 0, 0)" stroke="rgb(60, 60, 60)" stroke-width="1px" opacity="0.25"></line><line x1="0" y1="32.36363636363635" x2="299.21875" y2="32.36363636363635" fill="rgb(0, 0, 0)" stroke="rgb(60, 60, 60)" stroke-width="1px" opacity="0.25"></line><line x1="0" y1="16.181818181818187" x2="299.21875" y2="16.181818181818187" fill="rgb(0, 0, 0)" stroke="rgb(60, 60, 60)" stroke-width="1px" opacity="0.25"></line><line x1="0" y1="0" x2="299.21875" y2="0" fill="rgb(0, 0, 0)" stroke="rgb(60, 60, 60)" stroke-width="1px" opacity="0.25"></line></g></g></g><g><g><line x1="0" y1="161.8181818181818" x2="299.21875" y2="161.8181818181818" fill="rgb(0, 0, 0)" stroke="rgb(153, 153, 153)" stroke-width="1.5px"></line></g></g><g><g><line x1="33.24652777777778" y1="0" x2="33.24652777777778" y2="178" fill="rgb(0, 0, 0)" stroke="rgb(153, 153, 153)" stroke-width="1.5px"></line></g></g><g><g><g><g><g><path stroke="rgb(0, 119, 187)" stroke-width="2px" d="M33.24652777777778,32.885167035189546L36.57118055555556,32.97157762267373L39.895833333333336,32.832389751922655L43.22048611111111,33.18198581175371L46.54513888888889,33.76836832391978L49.869791666666664,34.33855983760719L53.19444444444445,35.32274040246702L56.51909722222222,37.20383108714458L59.84375,39.311949508496674L63.16840277777778,41.31817668674777L66.49305555555556,43.78744820637102L69.81770833333333,46.43998441725939L73.14236111111111,49.5161346060532L76.46701388888889,53.387120280833976L79.79166666666667,56.78576367127597L83.11631944444444,60.46476289990698L86.44097222222221,64.21514138519245L89.765625,67.68670412373528L93.09027777777779,70.40171431789832L96.41493055555556,72.55470143189298L99.73958333333333,74.7646352241309L103.06423611111111,77.34235023986021L106.3888888888889,80.15779558329497L109.71354166666666,83.1531206367637L113.03819444444444,84.9602387674167L116.36284722222223,87.51887199163232L119.6875,89.53704922074724L123.01215277777777,92.12342567583637L126.33680555555556,93.85245837106643L129.66145833333334,96.16801612778328L132.98611111111111,97.70318152960962L136.31076388888889,99.06212569725632L139.63541666666666,100.64199177742034L142.96006944444446,103.10019757828894L146.28472222222223,105.3318011511987L149.609375,108.02443437560777L152.93402777777777,109.75378344296287L156.25868055555557,111.7289783292266L159.58333333333334,113.10768583705557L162.9079861111111,115.41268860312064L166.23263888888889,116.02005324040128L169.55729166666666,117.83666063635476L172.88194444444443,119.58119969319637L176.20659722222223,120.92509452900796L179.53125,122.88026959505498L182.8559027777778,123.99472924742011L186.18055555555557,125.33465567691462L189.50520833333331,126.21028477177457L192.82986111111111,127.2808751304076L196.15451388888889,128.40534544658695L199.47916666666666,129.52604631478266L202.80381944444446,130.60429856281237L206.12847222222223,131.10923446314442L209.453125,131.86283662106092L212.7777777777778,132.37441799859627L216.10243055555554,132.85854141930287L219.42708333333331,133.50113007979786L222.75173611111111,133.95233950459377L226.07638888888889,134.3023117411557L229.40104166666669,134.50918549793772L232.72569444444446,135.22899824244107L236.0503472222222,135.21440347351032L239.375,135.2953022022092L242.69965277777777,135.68211877936386L246.02430555555554,135.59620618957652L249.34895833333334,135.5718262247184L252.67361111111111,135.44795612731482L255.99826388888889,135.5531011140498L259.3229166666667,135.6842571566196L262.64756944444446,135.80104898738108L265.97222222222223,134.55544780416903" style="fill: none;" fill="none"></path></g><g><path stroke="rgb(255, 112, 67)" stroke-width="2px" d="M33.24652777777778,33.23340199210427L36.57118055555556,33.33742938258431L39.895833333333336,33.42260608425389L43.22048611111111,33.52253332813794L46.54513888888889,33.73829939802936L49.869791666666664,34.29576083320783L53.19444444444445,35.08808733228412L56.51909722222222,36.33715427223789L59.84375,38.23168912717263L63.16840277777778,40.58655709301786L66.49305555555556,43.0898484373422L69.81770833333333,45.87500254555341L73.14236111111111,48.673103610929736L76.46701388888889,51.8134237990716L79.79166666666667,54.937229441880454L83.11631944444444,57.922012636791095L86.44097222222221,61.41840105927569L89.765625,65.02719619743314L93.09027777777779,68.7095155011681L96.41493055555556,72.25174244255422L99.73958333333333,75.60545232372002L103.06423611111111,78.79428281251788L106.3888888888889,81.91399330468796L109.71354166666666,85.2756308862539L113.03819444444444,88.53388526210438L116.36284722222223,91.54999706463835L119.6875,94.36453782792336L123.01215277777777,96.82320500203414L126.33680555555556,99.31707240476574L129.66145833333334,101.80485168243995L132.98611111111111,104.60870381537791L136.31076388888889,106.94197068132225L139.63541666666666,109.36756605150907L142.96006944444446,111.6488321267973L146.28472222222223,114.24445349689081L149.609375,116.31894336254037L152.93402777777777,118.87113218544064L156.25868055555557,121.03437953333612L159.58333333333334,123.44502392815338L162.9079861111111,125.58256563205495L166.23263888888889,127.52160278348427L169.55729166666666,129.13156458827643L172.88194444444443,130.9997457509779L176.20659722222223,133.04958707184417L179.53125,134.6132290554583L182.8559027777778,136.19302583031288L186.18055555555557,137.7699536818405L189.50520833333331,139.18032130179287L192.82986111111111,140.35346035436146L196.15451388888889,141.4850475479504L199.47916666666666,142.79067000792196L202.80381944444446,143.76100131138276L206.12847222222223,144.72706680672184L209.453125,145.49449958419066L212.7777777777778,146.25067732668398L216.10243055555554,146.87343815093783L219.42708333333331,147.63566894660283L222.75173611111111,148.52351598556965L226.07638888888889,148.88523367685485L229.40104166666669,149.51525925293106L232.72569444444446,150.32944792923058L236.0503472222222,150.94184839648767L239.375,151.58507994475713L242.69965277777777,152.18929168976993L246.02430555555554,152.7332499132233L249.34895833333334,153.04821814820144L252.67361111111111,153.55467924582672L255.99826388888889,153.8952520956694L259.3229166666667,154.2093064837623L262.64756944444446,154.60789171014403L265.97222222222223,154.7773017182653" style="fill: none;" fill="none"></path></g></g></g></g><g opacity="0.2"><g><g><g><path stroke="rgb(0, 119, 187)" stroke-width="2px" d="M33.24652777777778,32.885167035189546L36.57118055555556,33.023423975164235L39.895833333333336,32.69876939600164L43.22048611111111,33.59311077811501L46.54513888888889,34.53394933180376L49.869791666666664,35.12733996998181L53.19444444444445,36.73013435710559L56.51909722222222,39.94647936387495L59.84375,42.42101469906894L63.16840277777778,44.2971902327104L66.49305555555556,47.46895937486128L69.81770833333333,50.404353748668335L73.14236111111111,54.12031572515315L76.46701388888889,59.186015129089355L79.79166666666667,61.879733779213645L83.11631944444444,65.98066702756016L86.44097222222221,69.83912207863547L89.765625,72.89316680214621L93.09027777777779,74.4738160046664L96.41493055555556,75.78398531133479L99.73958333333333,78.07941471446644L103.06423611111111,81.2088379426436L106.3888888888889,84.38090801239014L109.71354166666666,87.64607273448597L113.03819444444444,87.67090311917393L116.36284722222223,91.35681091655385L119.6875,92.56430990045722L123.01215277777777,96.00298638777299L126.33680555555556,96.44600582122803L129.66145833333334,99.64135148308493L132.98611111111111,100.00592912327159L136.31076388888889,101.10054167834194L139.63541666666666,103.01179070906205L142.96006944444446,106.78750610351562L146.28472222222223,108.6792064146562L149.609375,112.06338414278896L152.93402777777777,112.34780701723965L156.25868055555557,114.69177064028652L159.58333333333334,115.17574709111993L162.9079861111111,118.87019274451517L166.23263888888889,116.93110019510443L169.55729166666666,120.56157172809947L172.88194444444443,122.19800827719949L176.20659722222223,122.94093678214334L179.53125,125.81303219361739L182.8559027777778,125.666418725794L186.18055555555557,127.34454532103105L189.50520833333331,127.52372841401534L192.82986111111111,128.8867606683211L196.15451388888889,130.09205092083323L199.47916666666666,131.20709761706266L202.80381944444446,132.22167693484914L206.12847222222223,131.86663831364024L209.453125,132.99323985793373L212.7777777777778,133.1417900648984L216.10243055555554,133.58472655036232L219.42708333333331,134.46501307053998L222.75173611111111,134.62915364178744L226.07638888888889,134.82727009599859L229.40104166666669,134.81949613311073L232.72569444444446,136.30871735919607L236.0503472222222,135.19251132011414L239.375,135.41665029525757L242.69965277777777,136.26234364509583L246.02430555555554,135.46733730489558L249.34895833333334,135.53525627743113L252.67361111111111,135.2621509812095L255.99826388888889,135.71081859415227L259.3229166666667,135.88099122047424L262.64756944444446,135.97623673352328L265.97222222222223,132.68704602935097" style="fill: none;" fill="none"></path></g><g><path stroke="rgb(255, 112, 67)" stroke-width="2px" d="M33.24652777777778,33.23340199210427L36.57118055555556,33.399845816872336L39.895833333333336,33.50437571785667L43.22048611111111,33.64004776694558L46.54513888888889,34.02000357887962L49.869791666666664,35.06693068417636L53.19444444444445,36.221126903187134L56.51909722222222,38.158305861733176L59.84375,41.0257600437511L63.16840277777778,44.083261576565825L66.49305555555556,46.82208078557795L69.81770833333333,50.03757702220569L73.14236111111111,52.86111892353406L76.46701388888889,56.51775186712092L79.79166666666667,59.61926598982378L83.11631944444444,62.39708232879639L86.44097222222221,66.66150413859974L89.765625,70.43947263197465L93.09027777777779,74.23243349248713L96.41493055555556,77.56475908106023L99.73958333333333,80.63583322004838L103.06423611111111,83.57742361588912L106.3888888888889,86.59349744970149L109.71354166666666,90.31804743680088L113.03819444444444,93.42124366760254L116.36284722222223,96.0741519061002L119.6875,98.5863417712125L123.01215277777777,100.511201988567L126.33680555555556,103.05787121165883L129.66145833333334,105.53651922399347L132.98611111111111,108.81448108499701L136.31076388888889,110.44187051599677L139.63541666666666,113.0059588172219L142.96006944444446,115.07073107632725L146.28472222222223,118.13788544047964L149.609375,119.43067810752176L152.93402777777777,122.6994153803045L156.25868055555557,124.279250535098L159.58333333333334,127.06099050695245L162.9079861111111,128.78887818076393L166.23263888888889,130.4301585067402L169.55729166666666,131.54650729352775L172.88194444444443,133.80201749368146L176.20659722222223,136.1243490522558L179.53125,136.9586920304732L182.8559027777778,138.5627209923484L186.18055555555557,140.13534545898438L189.50520833333331,141.29587273164228L192.82986111111111,142.11316893317482L196.15451388888889,143.18242833831093L199.47916666666666,144.7491036978635L202.80381944444446,145.21649826656687L206.12847222222223,146.1761650497263L209.453125,146.64564875039187L212.7777777777778,147.38494394042274L216.10243055555554,147.80757938731801L219.42708333333331,148.77901514009997L222.75173611111111,149.85528654401952L226.07638888888889,149.42781021378258L229.40104166666669,150.4602976170453L232.72569444444446,151.5507309436798L236.0503472222222,151.86044909737328L239.375,152.54992726716128L242.69965277777777,153.09560930728912L246.02430555555554,153.54918724840337L249.34895833333334,153.52067050066861L252.67361111111111,154.31437089226463L255.99826388888889,154.40611137043345L259.3229166666667,154.68038806590167L262.64756944444446,155.2057695497166L265.97222222222223,155.03141673044726" style="fill: none;" fill="none"></path></g></g></g></g></g></g><g transform="translate(30, 178)" clip-path="url(#clip_1)"><clipPath id="clip_1"><rect width="299" height="21"></rect></clipPath><g><g><line x1="0" y1="0" x2="0" y2="5" style="visibility: inherit;" fill="rgb(0, 0, 0)" stroke="rgb(204, 204, 204)" stroke-width="1px"></line><line x1="33.24652777777778" y1="0" x2="33.24652777777778" y2="5" style="visibility: inherit;" fill="rgb(0, 0, 0)" stroke="rgb(204, 204, 204)" stroke-width="1px"></line><line x1="66.49305555555556" y1="0" x2="66.49305555555556" y2="5" style="visibility: inherit;" fill="rgb(0, 0, 0)" stroke="rgb(204, 204, 204)" stroke-width="1px"></line><line x1="99.73958333333333" y1="0" x2="99.73958333333333" y2="5" style="visibility: inherit;" fill="rgb(0, 0, 0)" stroke="rgb(204, 204, 204)" stroke-width="1px"></line><line x1="132.98611111111111" y1="0" x2="132.98611111111111" y2="5" style="visibility: inherit;" fill="rgb(0, 0, 0)" stroke="rgb(204, 204, 204)" stroke-width="1px"></line><line x1="166.23263888888889" y1="0" x2="166.23263888888889" y2="5" style="visibility: inherit;" fill="rgb(0, 0, 0)" stroke="rgb(204, 204, 204)" stroke-width="1px"></line><line x1="199.47916666666666" y1="0" x2="199.47916666666666" y2="5" style="visibility: inherit;" fill="rgb(0, 0, 0)" stroke="rgb(204, 204, 204)" stroke-width="1px"></line><line x1="232.72569444444446" y1="0" x2="232.72569444444446" y2="5" style="visibility: inherit;" fill="rgb(0, 0, 0)" stroke="rgb(204, 204, 204)" stroke-width="1px"></line><line x1="265.97222222222223" y1="0" x2="265.97222222222223" y2="5" style="visibility: inherit;" fill="rgb(0, 0, 0)" stroke="rgb(204, 204, 204)" stroke-width="1px"></line><line x1="299.21875" y1="0" x2="299.21875" y2="5" style="visibility: inherit;" fill="rgb(0, 0, 0)" stroke="rgb(204, 204, 204)" stroke-width="1px"></line></g><g transform="translate(0, 8)"><text x="0" y="0" dx="0em" dy="0.95em" style="text-anchor: middle; visibility: hidden; font-family: Roboto, sans-serif; font-size: 12px; font-weight: 200;" fill="rgb(50, 49, 63)" stroke="none" stroke-width="1px">-10</text><text x="33.24652777777778" y="0" dx="0em" dy="0.95em" style="text-anchor: middle; visibility: inherit; font-family: Roboto, sans-serif; font-size: 12px; font-weight: 200;" fill="rgb(50, 49, 63)" stroke="none" stroke-width="1px">0</text><text x="66.49305555555556" y="0" dx="0em" dy="0.95em" style="text-anchor: middle; visibility: inherit; font-family: Roboto, sans-serif; font-size: 12px; font-weight: 200;" fill="rgb(50, 49, 63)" stroke="none" stroke-width="1px">10</text><text x="99.73958333333333" y="0" dx="0em" dy="0.95em" style="text-anchor: middle; visibility: inherit; font-family: Roboto, sans-serif; font-size: 12px; font-weight: 200;" fill="rgb(50, 49, 63)" stroke="none" stroke-width="1px">20</text><text x="132.98611111111111" y="0" dx="0em" dy="0.95em" style="text-anchor: middle; visibility: inherit; font-family: Roboto, sans-serif; font-size: 12px; font-weight: 200;" fill="rgb(50, 49, 63)" stroke="none" stroke-width="1px">30</text><text x="166.23263888888889" y="0" dx="0em" dy="0.95em" style="text-anchor: middle; visibility: inherit; font-family: Roboto, sans-serif; font-size: 12px; font-weight: 200;" fill="rgb(50, 49, 63)" stroke="none" stroke-width="1px">40</text><text x="199.47916666666666" y="0" dx="0em" dy="0.95em" style="text-anchor: middle; visibility: inherit; font-family: Roboto, sans-serif; font-size: 12px; font-weight: 200;" fill="rgb(50, 49, 63)" stroke="none" stroke-width="1px">50</text><text x="232.72569444444446" y="0" dx="0em" dy="0.95em" style="text-anchor: middle; visibility: inherit; font-family: Roboto, sans-serif; font-size: 12px; font-weight: 200;" fill="rgb(50, 49, 63)" stroke="none" stroke-width="1px">60</text><text x="265.97222222222223" y="0" dx="0em" dy="0.95em" style="text-anchor: middle; visibility: inherit; font-family: Roboto, sans-serif; font-size: 12px; font-weight: 200;" fill="rgb(50, 49, 63)" stroke="none" stroke-width="1px">70</text><text x="299.21875" y="0" dx="0em" dy="0.95em" style="text-anchor: middle; visibility: hidden; font-family: Roboto, sans-serif; font-size: 12px; font-weight: 200;" fill="rgb(50, 49, 63)" stroke="none" stroke-width="1px">80</text></g><line x1="0" y1="0" x2="299.21875" y2="0" fill="rgb(0, 0, 0)" stroke="rgb(204, 204, 204)" stroke-width="1px"></line></g></g></g></g></svg>